<?xml version="1.0" standalone="no"?>
<!DOCTYPE svg PUBLIC "-//W3C//DTD SVG 20010904//EN"
 "http://www.w3.org/TR/2001/REC-SVG-20010904/DTD/svg10.dtd">
<svg version="1.0" xmlns="http://www.w3.org/2000/svg"
 width="700.000000pt" height="700.000000pt" viewBox="0 0 700.000000 700.000000"
 preserveAspectRatio="xMidYMid meet">
<metadata>
Created by potrace 1.14, written by Peter Selinger 2001-2017
</metadata>
<g transform="translate(0.000000,700.000000) scale(0.100000,-0.100000)"
fill="#000000" stroke="none">
<path d="M3339 6996 c-2 -2 -33 -6 -69 -9 -268 -23 -597 -128 -845 -269 -190
-109 -308 -200 -480 -373 -193 -192 -335 -400 -444 -649 -100 -225 -158 -447
-178 -677 -14 -153 -7 -435 12 -524 2 -11 7 -38 10 -60 11 -78 46 -211 87
-335 46 -134 168 -383 693 -1405 51 -99 166 -324 255 -500 90 -176 203 -398
251 -492 49 -95 92 -180 97 -190 18 -36 26 -52 395 -773 120 -235 134 -262
147 -290 53 -108 226 -440 230 -440 3 0 63 114 134 253 71 138 183 358 249
487 66 129 170 334 232 455 62 121 172 337 245 480 73 143 181 355 240 470 59
116 165 323 235 460 70 138 180 354 245 480 437 855 470 926 525 1124 28 101
42 165 60 276 32 202 23 570 -19 740 -2 6 -6 28 -10 50 -33 169 -127 414 -234
604 -172 308 -461 608 -762 790 -245 149 -540 256 -820 298 -91 13 -471 28
-481 19z m321 -881 c87 -9 255 -54 341 -90 241 -101 442 -266 587 -480 263
-390 296 -898 85 -1320 -179 -356 -507 -609 -903 -696 -149 -33 -389 -33 -538
0 -173 38 -308 94 -452 189 -101 67 -124 86 -213 175 -171 171 -288 384 -349
637 -27 111 -33 385 -12 505 31 176 107 362 210 515 213 317 569 529 949 566
33 4 61 7 63 9 4 4 171 -3 232 -10z"/>
</g>
</svg>
